cyclingleg_states
version=1
nRows=7
nColumns=49
inDegrees=yes

# SIMM Motion File Header:
name cyclingleg_states
datacolumns 49
datarows 7
otherdata 1
range 0.56179514 0.59477647
endheader
time	/jointset/bb/crank_angle/value	/jointset/bb/crank_angle/speed	/jointset/spindle/pedal_angle_r/value	/jointset/spindle/pedal_angle_r/speed	/jointset/ground_pelvis/pelvis_tilt/value	/jointset/ground_pelvis/pelvis_tilt/speed	/jointset/ground_pelvis/pelvis_list/value	/jointset/ground_pelvis/pelvis_list/speed	/jointset/ground_pelvis/pelvis_rotation/value	/jointset/ground_pelvis/pelvis_rotation/speed	/jointset/ground_pelvis/pelvis_tx/value	/jointset/ground_pelvis/pelvis_tx/speed	/jointset/ground_pelvis/pelvis_ty/value	/jointset/ground_pelvis/pelvis_ty/speed	/jointset/ground_pelvis/pelvis_tz/value	/jointset/ground_pelvis/pelvis_tz/speed	/jointset/hip_r/hip_angle_r/value	/jointset/hip_r/hip_angle_r/speed	/jointset/hip_r/hip_adduction_r/value	/jointset/hip_r/hip_adduction_r/speed	/jointset/hip_r/hip_rotation_r/value	/jointset/hip_r/hip_rotation_r/speed	/jointset/knee_r/knee_angle_r/value	/jointset/knee_r/knee_angle_r/speed	/jointset/knee_r/tib_tx_r/value	/jointset/knee_r/tib_tx_r/speed	/jointset/knee_r/tib_ty_r/value	/jointset/knee_r/tib_ty_r/speed	/jointset/tib_pat_r/pat_angle_r/value	/jointset/tib_pat_r/pat_angle_r/speed	/jointset/tib_pat_r/pat_tx_r/value	/jointset/tib_pat_r/pat_tx_r/speed	/jointset/tib_pat_r/pat_ty_r/value	/jointset/tib_pat_r/pat_ty_r/speed	/jointset/ankle_r/ankle_angle_r/value	/jointset/ankle_r/ankle_angle_r/speed	/jointset/subtalar_r/subtalar_angle_r/value	/jointset/subtalar_r/subtalar_angle_r/speed	/jointset/mtp_r/mtp_angle_r/value	/jointset/mtp_r/mtp_angle_r/speed	/forceset/bifemlh_r/activation	/forceset/bifemlh_r/fiber_length	/forceset/bifemsh_r/activation	/forceset/bifemsh_r/fiber_length	/forceset/glut_max2_r/activation	/forceset/glut_max2_r/fiber_length	/forceset/vas_int_r/activation	/forceset/vas_int_r/fiber_length
      0.56179514	   -980.13465211	   -239.70775300	   1018.78658098	    211.60075339	      0.00000000	      0.00000000	      0.00000000	      0.00000000	     -0.00000000	      0.00000000	      0.28074566	      0.81022942	     -0.05000000	      0.00000000	     -0.00000000	      0.00000000	     -1.73346238	    -41.89877749	     10.09843577	     15.77296377	     13.51314181	      4.78751859	    -51.59665679	    -80.37451323	      0.00403893	      0.00915161	     -0.47349379	     -0.02257872	     17.14615608	      3.24506865	      0.04523259	     -0.02242781	     -0.02323808	      0.00308248	     91.99083731	     91.80745168	     -0.00000000	     -0.00000000	      0.00000000	      0.00000000	      0.02536028	      0.07392721	      0.02000000	      0.17096437	      0.02000000	      0.09793793	      0.02104071	      0.12240753
      0.56641077	   -981.21382758	   -227.93558163	   1019.72859282	    196.60505521	      0.00000000	      0.00000000	      0.00000000	      0.00000000	     -0.00000000	      0.00000000	      0.28449089	      0.81262486	     -0.05000000	      0.00000000	     -0.00000000	      0.00000000	     -1.93091907	    -43.67593550	     10.16807180	     14.39998043	     13.53393643	      4.22963485	    -51.95130274	    -73.29622345	      0.00407903	      0.00822888	     -0.47359363	     -0.02067586	     17.16030039	      2.88739466	      0.04513350	     -0.02050813	     -0.02322450	      0.00280304	     92.39534978	     83.48300221	     -0.00000000	     -0.00000000	      0.00000000	      0.00000000	      0.02573443	      0.07346454	      0.02000000	      0.17075170	      0.02000000	      0.09776628	      0.02097880	      0.12269848
      0.57036191	   -982.09478379	   -218.01517175	   1020.48030052	    183.92232443	      0.00000000	      0.00000000	      0.00000000	      0.00000000	     -0.00000000	      0.00000000	      0.28770575	      0.81468677	     -0.05000000	      0.00000000	     -0.00000000	      0.00000000	     -2.10659487	    -45.25659238	     10.22264571	     13.22473812	     13.54975794	      3.78364299	    -52.22896666	    -67.25705608	      0.00411002	      0.00746540	     -0.47367208	     -0.01903328	     17.17113295	      2.59841830	      0.04505573	     -0.01885812	     -0.02321389	      0.00256652	     92.71125281	     76.43484773	     -0.00000000	     -0.00000000	      0.00000000	      0.00000000	      0.02605471	      0.07307976	      0.02000000	      0.17058461	      0.02000000	      0.09761018	      0.02092875	      0.12292294
      0.57431304	   -982.93681013	   -208.22874859	   1021.18215868	    171.37102204	      0.00000000	      0.00000000	      0.00000000	      0.00000000	     -0.00000000	      0.00000000	      0.29092877	      0.81675396	     -0.05000000	      0.00000000	     -0.00000000	      0.00000000	     -2.28861578	    -46.88682816	     10.27257733	     12.05029046	     13.56387040	      3.36413824	    -52.48280743	    -61.23779253	      0.00413805	      0.00672504	     -0.47374402	     -0.01738029	     17.18085246	      2.32375989	      0.04498448	     -0.01720338	     -0.02320422	      0.00233230	     92.99944229	     69.45452109	     -0.00000000	     -0.00000000	      0.00000000	      0.00000000	      0.02637499	      0.07270508	      0.02000000	      0.17043133	      0.02000000	      0.09744543	      0.02088126	      0.12313198
      0.57980606	   -984.04378986	   -194.86911054	   1022.07613961	    154.17703284	      0.00000000	      0.00000000	      0.00000000	      0.00000000	     -0.00000000	      0.00000000	      0.29542306	      0.81959872	     -0.05000000	      0.00000000	     -0.00000000	      0.00000000	     -2.55253663	    -49.21728256	     10.33430048	     10.42479533	     13.58083907	      2.82165039	    -52.79633201	    -52.92912353	      0.00417225	      0.00573424	     -0.47383316	     -0.01507558	     17.19261758	      1.96397743	      0.04489630	     -0.01490440	     -0.02319229	      0.00201115	     93.35459726	     59.88359947	     -0.00000000	     -0.00000000	      0.00000000	      0.00000000	      0.02682027	      0.07220048	      0.02000000	      0.17024102	      0.02000000	      0.09720172	      0.02081925	      0.12339063
      0.58723178	   -985.42515742	   -177.27270062	   1023.13618541	    131.43070485	      0.00000000	      0.00000000	      0.00000000	      0.00000000	     -0.00000000	      0.00000000	      0.30152314	      0.82333468	     -0.05000000	      0.00000000	     -0.00000000	      0.00000000	     -2.92998417	    -52.45533738	     10.40361273	      8.24843398	     13.59927060	      2.15437618	    -53.14807199	    -41.83795392	      0.00421006	      0.00446186	     -0.47393354	     -0.01196350	     17.20550491	      1.51343674	      0.04479712	     -0.01181229	     -0.02317894	      0.00158567	     93.75200954	     47.20612107	     -0.00000000	     -0.00000000	      0.00000000	      0.00000000	      0.02742220	      0.07154736	      0.02000000	      0.17002538	      0.02000000	      0.09684468	      0.02074232	      0.12368594
      0.59477647	   -986.69696966	   -159.97000992	   1024.04259193	    108.96199464	      0.00000000	      0.00000000	      0.00000000	      0.00000000	     -0.00000000	      0.00000000	      0.30774862	      0.82691124	     -0.05000000	      0.00000000	     -0.00000000	     -0.00000000	     -3.33835259	    -55.80295377	     10.45761245	      6.07356806	     13.61317631	      1.54177883	    -53.42186877	    -30.78366199	      0.00423907	      0.00324173	     -0.47401195	     -0.00882922	     17.21531075	      1.09146351	      0.04471974	     -0.00870904	     -0.02316858	      0.00116446	     94.06061154	     34.66046755	     -0.00000000	     -0.00000000	      0.00000000	      0.00000000	      0.02778137	      0.07091890	      0.02003146	      0.16985410	      0.02000000	      0.09644887	      0.02067157	      0.12392366
